<svg width="1440" height="300" viewBox="0 0 1440 300" fill="none" xmlns="http://www.w3.org/2000/svg">
<path d="M1336.98 38.0417L1320.1 37.3274C1276.59 34.4704 1233.68 31.0776 1184.54 28.3991C1104.03 22.6849 1030.63 30.1847 906.906 21.0778C892.698 20.185 902.17 23.0421 841.789 23.0421C723.394 22.8635 522.122 12.328 394.255 4.29248C312.267 -1.2431 224.951 -4.10018 147.402 12.8637L134.97 16.6136C114.054 16.2565 93.2361 17.2684 72.5169 19.6493C68.0771 20.185 65.1173 22.1492 61.8614 23.9349C56.2376 27.5062 64.8213 32.6847 54.7577 34.4704C49.7259 35.5418 44.1021 36.0775 40.2543 38.3988C37.2944 40.1845 37.5904 43.2202 34.6305 45.1844C33.1506 46.4344 30.1907 47.5058 30.7827 49.1129C31.3747 50.72 36.1105 50.1843 37.8864 50.8986C38.6757 51.3747 39.465 52.0295 40.2543 52.8628C42.2276 53.9342 44.0035 55.1842 45.5821 56.6127C46.9634 58.1603 49.3313 59.0531 52.6858 59.2912C54.1657 59.8269 72.221 60.7198 64.8213 61.6126C31.6707 65.3625 43.8062 62.684 15.6873 63.3983C13.0235 63.3983 9.76759 63.934 8.58364 65.5411C5.91975 69.291 13.6154 74.4694 6.21574 77.148C0.295987 78.2194 1.47994 82.1478 1.47994 85.0049C1.47994 88.5763 0 90.8976 0 94.2904C0 96.7904 1.47994 99.1117 1.77592 101.433C2.66389 106.79 3.25586 109.112 17.1673 111.969C21.3111 112.445 24.1723 113.576 25.7509 115.361C26.9349 117.326 26.3429 119.29 26.9349 121.254C28.7108 129.468 41.4383 123.754 42.6222 131.254C43.4115 133.278 42.9182 134.587 41.1423 135.182C38.9717 135.539 37.3931 136.254 36.4065 137.325C34.6305 139.647 37.5904 143.218 36.4065 145.539C35.2225 147.861 32.2626 150.361 36.4065 152.325C38.4784 153.575 43.2142 154.11 43.8062 154.825C44.3981 156.432 33.4466 156.432 35.2225 161.432C35.8145 164.467 31.9667 165.539 26.9349 166.789C23.087 167.86 19.5352 168.574 18.9432 170.539C18.9432 172.86 18.9432 175.717 21.3111 177.681C28.7108 181.253 39.3663 182.86 48.246 184.824C53.5737 187.503 67.1892 189.467 47.062 196.252C20.1271 196.431 18.6472 195.36 12.7275 201.074C9.17561 204.645 10.9515 209.288 10.9515 213.395C10.9515 216.788 13.0235 220.18 13.6154 223.573C15.3914 229.823 20.4231 228.037 25.7509 229.823C29.3028 231.073 31.3747 233.216 25.7509 232.502C20.1272 231.787 13.6154 232.859 13.9114 236.787C14.3061 238.335 14.5034 239.823 14.5034 241.251C13.3194 244.108 7.99166 244.466 12.4315 252.144C14.5034 255.001 16.2793 258.394 20.7191 259.644C24.567 260.715 29.5987 260.001 33.1506 261.251C36.4065 262.144 39.3663 265.537 37.5904 267.679C36.4065 268.751 33.4466 268.751 31.3747 269.108C25.4549 270.179 24.863 273.572 18.0552 272.679C10.3596 272.322 10.6556 274.822 14.2074 278.393C16.1807 280.417 19.0419 281.548 22.791 281.786C44.1021 283.75 66.0052 286.607 87.6123 285.536C94.716 286.012 101.721 286.369 108.627 286.607C295.1 296.25 284.148 296.072 319.371 296.429C325.586 294.822 315.819 284.465 327.362 281.965C349.561 277.679 367.025 295.536 388.928 293.572C398.991 292.679 391.592 281.965 401.655 284.643C417.934 288.929 434.51 294.643 451.677 299.107C454.439 299.702 457.301 300 460.261 300C494.201 300 528.338 299.464 562.672 298.393C571.552 297.857 564.744 290.536 575.104 289.822C595.231 288.036 631.637 298.75 641.701 293.036C645.845 290.893 643.773 286.607 651.469 287.143C661.236 287.679 669.524 290.893 678.995 290C694.683 288.572 710.37 285.715 726.353 285.179C797.982 284.643 862.212 274.286 933.841 269.108C1010.21 268.036 1034.77 268.215 1109.66 260.18H1113.8C1116.17 260.537 1118.54 260.358 1128.01 260.18C1182.77 259.644 1179.51 262.322 1187.8 259.644C1190.17 258.572 1191.05 257.501 1193.42 257.501C1202.89 257.501 1217.4 258.572 1239 258.572C1243.74 258.572 1249.07 258.93 1253.21 257.322C1256.76 255.537 1255.88 253.751 1262.68 253.751C1292.87 253.93 1297.02 253.751 1299.68 252.68C1302.35 251.608 1301.16 249.465 1298.2 248.93C1270.08 247.144 1230.42 248.573 1214.44 247.501C1211.18 247.501 1209.7 244.466 1212.07 243.216C1222.43 236.787 1233.08 236.43 1249.07 235.894C1254.59 235.656 1259.82 235.121 1264.75 234.287C1276.59 231.787 1269.79 229.109 1260.02 228.93C1248.77 228.395 1235.16 229.644 1224.5 226.43C1223.12 225.716 1222.82 224.704 1223.61 223.395C1262.68 221.609 1301.95 221.073 1341.42 221.788C1348.32 221.668 1353.16 220.18 1355.92 217.323H1358.88C1368.65 217.323 1373.97 213.395 1375.45 209.109C1376.84 208.871 1377.62 208.335 1377.82 207.502V199.645C1379.01 198.752 1379.01 196.967 1374.86 196.788C1372.49 196.074 1365.09 196.074 1362.43 196.074C1358.58 195.895 1358.58 195.717 1357.99 196.074L1331.35 195.36C1332.24 193.752 1332.54 192.324 1335.5 191.967C1339.34 191.431 1345.86 191.967 1348.82 190.181C1350.89 188.931 1352.37 187.145 1355.62 186.967C1371.01 186.074 1375.75 186.788 1379.6 184.288C1381.97 182.681 1385.22 180.36 1384.63 178.574C1384.23 177.86 1384.53 177.622 1385.52 177.86C1395.58 177.324 1413.64 177.86 1417.78 176.431C1420.74 175.539 1420.15 173.396 1417.78 172.681L1416.89 172.503H1416.3C1412.16 171.789 1407.12 172.503 1402.98 171.967C1401.8 171.729 1401.6 171.074 1402.39 170.003C1403.38 168.217 1402.39 167.027 1399.43 166.432C1389.07 165.717 1379.3 167.324 1368.65 167.146C1358.88 167.146 1347.63 168.574 1338.16 166.789C1337.57 166.789 1335.79 166.432 1336.09 166.074C1336.09 165.539 1338.75 165.539 1341.71 165.539C1345.86 165.539 1351.78 163.575 1347.34 161.253C1345.95 160.777 1344.47 160.539 1342.9 160.539H1329.28C1331.25 160.539 1332.34 160.36 1332.54 160.003H1335.5C1337.57 160.003 1339.05 158.396 1338.16 157.325L1338.75 156.432C1338.75 155.956 1338.46 155.539 1337.86 155.182L1336.09 154.646C1333.42 153.753 1307.97 156.075 1286.36 154.289L1291.69 153.932C1294.65 153.753 1300.57 153.218 1301.16 151.611C1301.16 146.432 1301.16 148.575 1300.27 144.825C1301.46 144.111 1304.42 142.861 1302.94 142.146C1301.16 141.254 1292.87 139.468 1290.51 139.468C1294.95 138.575 1299.09 139.468 1303.53 138.754C1313.2 138.158 1322.87 137.801 1332.54 137.682C1336.38 137.682 1336.09 134.468 1332.54 134.111H1331.35C1354.73 133.04 1362.43 133.754 1363.91 130.897C1364.8 127.325 1357.1 128.04 1353.85 127.504C1353.45 127.266 1353.45 126.968 1353.85 126.611C1357.4 123.992 1357.2 122.206 1353.26 121.254C1338.16 119.468 1322.47 119.826 1307.38 118.397L1307.67 118.218L1312.11 118.04C1322.37 117.683 1332.54 117.088 1342.6 116.254C1345.26 115.897 1348.82 115.361 1349.11 113.576C1349.11 112.147 1347.04 111.254 1345.56 110.361C1343.49 108.933 1345.56 105.54 1342.6 104.29C1340.82 103.457 1338.75 103.04 1336.38 103.04L1309.45 102.147C1309.45 101.671 1309.15 101.195 1308.56 100.719C1314.88 100.6 1321.19 100.243 1327.5 99.6474L1357.4 99.2903C1361.84 100.005 1367.46 100.005 1376.64 99.2903C1382.56 99.2903 1389.07 100.362 1394.4 99.1117C1402.39 96.9689 1390.25 88.2191 1401.2 88.5763L1424 88.3977C1428.34 88.2787 1431.49 87.0882 1433.47 84.8264C1434.95 83.2192 1436.43 80.8979 1433.47 79.4693C1431.49 78.636 1428.93 78.1003 1425.77 77.8622C1422.61 77.386 1422.22 77.0289 1424.59 76.7908C1428.14 76.4337 1433.76 76.6123 1434.65 73.7552C1435.24 71.8505 1435.74 70.0053 1436.13 68.2196C1437.32 64.8268 1440.28 62.1483 1439.98 58.7555C1438.8 53.7556 1439.98 48.2201 1434.95 44.2916C1431.99 42.5059 1426.66 42.6845 1421.92 42.3273L1400.91 41.0774C1376.34 40.006 1360.65 40.1845 1336.38 38.9345L1336.98 38.0417Z" fill="url(#paint0_linear_189_2)"/>
<defs>
<linearGradient id="paint0_linear_189_2" x1="720" y1="372.541" x2="723.312" y2="0.00997205" gradientUnits="userSpaceOnUse">
<stop stop-color="#F88944"/>
<stop offset="0.862523" stop-color="#95377F"/>
</linearGradient>
</defs>
</svg>
