<svg width="336" height="700" viewBox="0 0 336 700" fill="none" xmlns="http://www.w3.org/2000/svg">
<path d="M293.393 649.919L294.193 641.717C297.393 620.567 301.193 599.704 304.193 575.819C310.593 536.683 302.193 501 312.393 440.857C313.393 433.951 310.193 438.555 310.193 409.203C310.393 351.65 322.193 253.809 331.192 191.652C337.392 151.796 340.592 109.351 321.593 71.6537L317.393 65.6106C317.793 55.4429 316.659 45.3231 313.993 35.2513C313.393 33.093 311.193 31.6542 309.193 30.0715C305.193 27.3377 299.393 31.5103 297.393 26.6183C296.193 24.1723 295.593 21.4385 292.993 19.5681C290.993 18.1292 287.593 18.2731 285.393 16.8343C283.993 16.1149 282.794 14.676 280.994 14.9638C279.194 15.2516 279.794 17.5537 278.994 18.417C278.46 18.8007 277.727 19.1844 276.794 19.5681C275.594 20.5273 274.194 21.3906 272.594 22.158C270.86 22.8294 269.86 23.9805 269.594 25.6111C268.994 26.3306 267.994 35.1074 266.994 31.5103C262.794 15.3955 265.794 21.2947 264.994 7.62579C264.994 6.33084 264.394 4.74813 262.594 4.1726C258.394 2.87766 252.594 6.61861 249.594 3.02154C248.394 0.143883 243.994 0.719414 240.794 0.719414C236.795 0.719414 234.195 0 230.395 0C227.595 0 224.995 0.719414 222.395 0.863297C216.395 1.29495 213.795 1.58271 210.595 8.3452C210.062 10.3596 208.795 11.7504 206.795 12.5178C204.595 13.0933 202.395 12.8056 200.195 13.0933C190.996 13.9566 197.395 20.1436 188.996 20.7191C186.729 21.1028 185.262 20.863 184.596 19.9997C184.196 18.9446 183.396 18.1772 182.196 17.6976C179.596 16.8343 175.596 18.2731 172.996 17.6976C170.396 17.1221 167.596 15.6832 165.396 17.6976C163.996 18.7048 163.396 21.0069 162.596 21.2947C160.796 21.5824 160.796 16.2588 155.196 17.1221C151.797 17.4098 150.597 15.5393 149.197 13.0933C147.997 11.2229 147.197 9.49627 144.997 9.2085C142.397 9.2085 139.197 9.2085 136.997 10.3596C132.997 13.9566 131.197 19.1364 128.997 23.4529C125.997 26.0428 123.797 32.6614 116.197 22.8774C115.997 9.78403 117.197 9.06462 110.797 6.18696C106.798 4.46037 101.598 5.32366 96.9978 5.32366C93.1979 5.32366 89.3979 6.33084 85.598 6.61861C78.5982 7.48191 80.5981 9.92792 78.5982 12.5178C77.1982 14.2444 74.7983 15.2516 75.5982 12.5178C76.3982 9.78403 75.1983 6.61861 70.7984 6.76249C69.0651 6.95434 67.3984 7.05026 65.7985 7.05026C62.5986 6.47473 62.1986 3.88484 53.5987 6.04308C50.3988 7.05026 46.5989 7.91356 45.1989 10.0718C43.999 11.9423 44.799 14.3883 43.399 16.1149C42.399 17.6976 38.5991 19.1364 36.1992 18.2731C34.9992 17.6976 34.9992 16.2588 34.5992 15.2516C33.3992 12.3739 29.5993 12.0862 30.5993 8.77685C30.9993 5.0359 28.1993 5.17978 24.1994 6.90638C21.9328 7.86559 20.6662 9.25646 20.3995 11.079C18.1996 21.4385 14.9996 32.0859 16.1996 42.5893C15.6663 46.0425 15.2663 49.4477 14.9997 52.805C4.1999 143.451 4.3999 138.128 3.99991 155.25C5.79987 158.271 17.3996 153.523 20.1995 159.134C24.9994 169.926 4.99987 178.415 7.19982 189.062C8.19979 193.954 20.1995 190.357 17.1996 195.249C12.3997 203.163 5.99986 211.22 0.999977 219.565C0.333326 220.908 1.7602e-07 222.299 1.7602e-07 223.738C1.7602e-07 240.236 0.599974 256.831 1.79995 273.521C2.39993 277.838 10.5998 274.528 11.3997 279.564C13.3997 289.348 1.39996 307.046 7.79981 311.938C10.1998 313.952 14.9997 312.945 14.3997 316.686C13.7997 321.434 10.1997 325.463 11.1997 330.067C12.7997 337.693 15.9996 345.319 16.5996 353.088C17.1996 387.908 28.7993 419.131 34.5992 453.95C35.7992 491.072 35.5992 503.014 44.599 539.417V541.431C44.199 542.582 44.399 543.733 44.599 548.337C45.1989 574.956 42.199 573.373 45.1989 577.402C46.3989 578.553 47.5989 578.984 47.5989 580.136C47.5989 584.74 46.3989 591.79 46.3989 602.294C46.3989 604.596 45.9989 607.186 47.7989 609.2C49.7988 610.926 51.7988 610.495 51.7988 613.804C51.5988 628.48 51.7988 630.495 52.9988 631.789C54.1988 633.084 56.5987 632.509 57.1987 631.07C59.1986 617.401 57.5987 598.121 58.7986 590.351C58.7986 588.768 62.1986 588.049 63.5985 589.2C70.7984 594.236 71.1984 599.416 71.7983 607.186C72.065 609.871 72.665 612.413 73.5983 614.811C76.3982 620.567 79.3982 617.257 79.5982 612.509C80.1981 607.042 78.7982 600.423 82.3981 595.243C83.1981 594.572 84.3314 594.428 85.798 594.812C87.798 613.804 88.398 632.893 87.598 652.077C87.7313 655.434 89.398 657.784 92.5979 659.127V660.566C92.5979 665.314 96.9978 667.904 101.798 668.623C102.064 669.295 102.664 669.679 103.598 669.775H112.397C113.397 670.35 115.397 670.35 115.597 668.336C116.397 667.185 116.397 663.588 116.397 662.293C116.597 660.422 116.797 660.422 116.397 660.134L117.197 647.185C118.997 647.617 120.597 647.76 120.997 649.199C121.597 651.07 120.997 654.235 122.997 655.674C124.397 656.681 126.397 657.401 126.597 658.983C127.597 666.465 126.797 668.767 129.597 670.638C131.397 671.789 133.997 673.372 135.997 673.084C136.797 672.892 137.064 673.036 136.797 673.516C137.397 678.408 136.797 687.184 138.397 689.199C139.397 690.638 141.797 690.35 142.597 689.199L142.797 688.767V688.479C143.597 686.465 142.797 684.019 143.397 682.005C143.663 681.429 144.397 681.333 145.597 681.717C147.597 682.196 148.93 681.717 149.597 680.278C150.397 675.242 148.597 670.494 148.797 665.314C148.797 660.566 147.197 655.099 149.197 650.494C149.197 650.206 149.597 649.343 149.997 649.487C150.597 649.487 150.597 650.782 150.597 652.221C150.597 654.235 152.797 657.113 155.396 654.955C155.93 654.283 156.196 653.564 156.196 652.796V646.178C156.196 647.137 156.396 647.665 156.796 647.76V649.199C156.796 650.206 158.596 650.926 159.796 650.494L160.796 650.782C161.33 650.782 161.796 650.638 162.196 650.35L162.796 649.487C163.796 648.192 161.196 635.818 163.196 625.315L163.596 627.905C163.796 629.343 164.396 632.221 166.196 632.509C171.996 632.509 169.596 632.509 173.796 632.077C174.596 632.653 175.996 634.092 176.796 633.372C177.796 632.509 179.796 628.48 179.796 627.329C180.796 629.487 179.796 631.502 180.596 633.66C181.263 638.36 181.663 643.06 181.796 647.76C181.796 649.631 185.396 649.487 185.796 647.76V647.185C186.996 658.552 186.196 662.293 189.396 663.012C193.396 663.444 192.596 659.703 193.196 658.12C193.462 657.928 193.796 657.928 194.196 658.12C197.129 659.847 199.129 659.751 200.195 657.832C202.195 650.494 201.795 642.868 203.395 635.53L203.595 635.674L203.795 637.833C204.195 642.82 204.862 647.76 205.795 652.652C206.195 653.947 206.795 655.674 208.795 655.818C210.395 655.818 211.395 654.811 212.395 654.091C213.995 653.084 217.795 654.091 219.195 652.652C220.128 651.789 220.595 650.782 220.595 649.631L221.595 636.538C222.128 636.538 222.662 636.394 223.195 636.106C223.328 639.175 223.728 642.245 224.395 645.314L224.795 659.847C223.995 662.005 223.995 664.739 224.795 669.199C224.795 672.077 223.595 675.242 224.995 677.832C227.395 681.717 237.195 675.818 236.795 681.141L236.995 692.22C237.128 694.331 238.461 695.865 240.994 696.824C242.794 697.544 245.394 698.263 246.994 696.824C247.928 695.865 248.528 694.618 248.794 693.084C249.328 691.549 249.728 691.357 249.994 692.508C250.394 694.235 250.194 696.968 253.394 697.4C255.527 697.688 257.594 697.928 259.594 698.119C263.394 698.695 266.394 700.134 270.194 699.99C275.794 699.414 281.994 699.99 286.393 697.544C288.393 696.105 288.193 693.515 288.593 691.213L289.993 680.997C291.193 669.055 290.993 661.429 292.393 649.631L293.393 649.919Z" fill="url(#paint0_linear_191_3)"/>
<defs>
<linearGradient id="paint0_linear_191_3" x1="-81.2459" y1="350" x2="335.847" y2="358.542" gradientUnits="userSpaceOnUse">
<stop stop-color="#F88944"/>
<stop offset="0.862523" stop-color="#95377F"/>
</linearGradient>
</defs>
</svg>
